<svg version="1.1" id="Layer_1" xmlns="http://www.w3.org/2000/svg" xmlns:xlink="http://www.w3.org/1999/xlink" x="0px" y="0px"
	 width="100%" viewBox="0 0 1024 576" enable-background="new 0 0 1024 576" xml:space="preserve">
<path fill="#000000" opacity="1.000000" stroke="none" 
	d="
M463.650970,383.318542 
	C428.169128,310.713257 392.934082,238.404480 357.458130,166.214081 
	C348.138489,147.249390 334.689941,131.457809 318.015564,118.434067 
	C308.783325,111.223114 300.566772,102.968681 293.307831,93.780411 
	C292.149292,92.313957 289.821320,90.633064 291.390381,88.658287 
	C293.145050,86.449875 294.979889,88.759819 296.545624,89.739830 
	C328.389374,109.670982 362.884064,121.926620 400.320038,125.738335 
	C405.344177,126.249893 406.667267,129.189636 403.603912,133.179840 
	C394.303864,145.293732 393.651733,157.993713 400.301483,171.549225 
	C434.331818,240.919403 468.269897,310.334839 502.250824,379.729218 
	C503.109192,381.482178 503.649078,383.465424 505.810547,384.965088 
	C511.562408,373.375610 517.257568,361.931274 522.926025,350.473694 
	C547.445557,300.913025 571.957825,251.348694 596.471619,201.785202 
	C601.419495,191.781418 606.297852,181.742630 611.324280,171.778503 
	C618.038513,158.468597 617.342590,145.863922 608.240234,133.830688 
	C604.578491,128.989822 606.195496,126.569778 613.552612,125.861176 
	C629.342102,124.340431 644.738159,120.962616 659.850342,116.222198 
	C679.507629,110.056053 697.970764,101.307312 715.467651,90.464355 
	C717.052429,89.482201 718.901672,87.329933 720.690186,89.436646 
	C722.213745,91.231163 720.052368,92.788078 719.006958,94.148018 
	C711.967773,103.305069 703.921753,111.490822 694.761780,118.532150 
	C676.338013,132.694611 662.253418,150.253189 651.986877,171.142136 
	C625.982544,224.052185 599.650024,276.800873 573.486450,329.632751 
	C551.907593,373.206787 530.387756,416.810059 508.814941,460.387054 
	C507.873810,462.288177 507.264526,464.445251 504.533600,466.416901 
	C490.893402,438.699097 477.350586,411.179199 463.650970,383.318542 
z"/>
<path fill="#000000" opacity="1.000000" stroke="none" 
	d="
M490.856567,343.021057 
	C486.434174,335.768646 485.730438,328.296692 485.849884,320.247864 
	C486.237976,294.094482 485.678497,267.926941 486.073151,241.773758 
	C486.251373,229.963181 486.622253,218.149750 486.665070,206.332077 
	C486.755127,181.480179 482.408142,157.677719 470.253632,135.657135 
	C468.489410,132.460846 467.184631,129.007721 465.721649,125.649727 
	C464.916382,123.801353 464.053314,121.864418 465.932037,120.131508 
	C467.768951,118.437134 469.665985,119.295662 471.487488,120.200760 
	C484.674042,126.753296 498.648315,128.850388 513.230713,127.766357 
	C522.148804,127.103386 530.531677,124.574890 538.664856,121.005585 
	C541.009888,119.976456 543.437561,117.911125 545.965515,120.473961 
	C548.316284,122.857155 546.358704,125.152077 545.410217,127.346016 
	C540.071289,139.695847 533.004517,151.294418 529.806396,164.575119 
	C526.990295,176.269867 525.175049,188.012436 525.192749,200.094818 
	C525.254211,242.082504 525.069336,284.070496 525.067932,326.058380 
	C525.067810,330.320496 524.383911,334.224976 522.420288,338.066864 
	C517.494385,347.704437 512.830872,357.475952 508.020569,367.173096 
	C507.377808,368.468872 506.926941,369.995026 504.614685,370.829285 
	C500.106354,361.716431 495.565216,352.537201 490.856567,343.021057 
z"/>
<path fill="#000000" opacity="1.000000" stroke="none" 
	d="
M533.848450,25.026281 
	C548.739319,35.119499 556.146851,49.272163 556.712830,66.489212 
	C557.197083,81.219627 551.813416,94.365105 540.842834,104.466652 
	C527.721863,116.548264 511.877930,120.865120 494.562866,117.004402 
	C479.571106,113.661690 467.787537,104.862747 461.037506,90.863564 
	C451.214813,70.491936 453.317017,50.922367 468.217621,33.727962 
	C479.497375,20.711782 494.324615,15.482875 511.614227,17.198317 
	C519.605835,17.991226 526.751831,20.803955 533.848450,25.026281 
z"/>
<path fill="#000000" opacity="1.000000" stroke="none" 
	d="
M485.695160,463.998688 
	C485.694977,457.735077 485.694977,451.970581 485.694977,446.206085 
	C486.165771,446.082611 486.636566,445.959137 487.107361,445.835693 
	C493.785828,456.738068 498.293549,468.831421 505.214081,481.007660 
	C511.248199,468.925964 516.897888,457.613983 522.711365,445.973999 
	C525.005249,447.971893 524.280334,450.081421 524.289856,451.887573 
	C524.367798,466.682587 523.994324,481.468567 527.060120,496.110992 
	C531.135742,515.576660 539.584473,532.862000 551.886719,548.378967 
	C553.083374,549.888245 554.859070,551.092529 555.099976,553.818237 
	C521.700012,553.818237 488.410461,553.818237 455.206543,553.818237 
	C454.144073,552.116577 455.338531,551.153564 456.154419,550.194336 
	C477.178192,525.477356 486.671082,496.794006 485.695160,463.998688 
z"/>
</svg>